<?xml version="1.0" standalone="no"?>
<!DOCTYPE svg PUBLIC "-//W3C//DTD SVG 20010904//EN"
 "http://www.w3.org/TR/2001/REC-SVG-20010904/DTD/svg10.dtd">
<svg version="1.0" xmlns="http://www.w3.org/2000/svg"
 width="962.000000pt" height="954.000000pt" viewBox="0 0 962.000000 954.000000"
 preserveAspectRatio="xMidYMid meet">

<g transform="translate(0.000000,954.000000) scale(0.100000,-0.100000)"
fill="#000000" stroke="none">
<path d="M0 4770 l0 -4770 4810 0 4810 0 0 4770 0 4770 -4810 0 -4810 0 0
-4770z m3848 2540 c74 -107 180 -262 236 -345 56 -82 203 -296 326 -475 123
-179 250 -363 281 -410 32 -47 94 -137 138 -200 44 -63 128 -186 187 -272 59
-87 110 -158 113 -157 3 0 110 123 238 272 128 150 338 396 469 547 706 820
832 966 859 999 17 21 70 83 119 139 l89 102 239 0 c189 0 238 -3 232 -12 -4
-7 -31 -40 -60 -73 -84 -97 -172 -199 -499 -580 -346 -403 -869 -1011 -1227
-1428 -131 -152 -238 -280 -238 -285 0 -9 73 -118 361 -537 72 -104 261 -379
420 -610 158 -231 349 -508 422 -615 415 -604 564 -821 602 -875 23 -33 89
-130 147 -215 58 -85 139 -204 181 -265 42 -60 73 -113 71 -117 -3 -5 -367 -8
-809 -8 -718 0 -806 2 -820 16 -8 9 -48 64 -87 122 -39 59 -101 150 -138 202
-36 52 -106 154 -155 225 -48 72 -141 207 -205 300 -115 167 -262 380 -490
711 -120 176 -316 462 -377 552 -20 28 -39 52 -42 52 -3 -1 -22 -21 -41 -44
-19 -24 -130 -154 -245 -288 -116 -133 -336 -389 -490 -568 -153 -179 -308
-359 -344 -401 -36 -41 -141 -163 -233 -270 -399 -465 -512 -594 -522 -601
-15 -10 -464 -10 -469 0 -3 4 110 140 250 302 140 162 291 338 336 391 161
189 544 634 648 753 58 67 132 153 165 192 72 86 357 417 364 424 29 27 360
421 360 429 0 5 -27 49 -61 98 -33 48 -188 275 -345 503 -317 463 -405 591
-514 750 -78 113 -259 376 -505 735 -181 263 -385 560 -566 822 -76 112 -139
205 -139 208 0 3 368 4 817 3 l817 -3 134 -195z"/>
<path d="M2740 7143 c0 -5 42 -68 93 -140 50 -73 146 -210 212 -304 66 -95
149 -214 185 -265 36 -51 112 -161 170 -244 58 -82 163 -232 233 -333 71 -100
146 -208 168 -241 22 -32 81 -117 132 -190 52 -72 114 -160 139 -196 24 -36
105 -151 179 -257 153 -219 331 -474 403 -578 71 -101 611 -874 731 -1045 56
-80 122 -174 147 -210 24 -36 114 -164 199 -285 85 -122 208 -299 274 -394 66
-95 129 -184 140 -197 l20 -25 368 3 369 3 -227 325 c-125 179 -430 615 -678
970 -248 355 -509 728 -580 830 -72 102 -149 212 -172 245 -22 33 -95 137
-160 230 -188 268 -382 545 -891 1275 -246 352 -369 528 -525 750 -72 102
-144 206 -161 233 l-30 47 -369 0 c-203 0 -369 -3 -369 -7z"/>
</g>
</svg>
