<?xml version="1.0" standalone="no"?>
<!DOCTYPE svg PUBLIC "-//W3C//DTD SVG 20010904//EN"
 "http://www.w3.org/TR/2001/REC-SVG-20010904/DTD/svg10.dtd">
<svg version="1.0" xmlns="http://www.w3.org/2000/svg"
 width="3840.000000pt" height="2160.000000pt" viewBox="0 0 3840.000000 2160.000000"
 preserveAspectRatio="xMidYMid meet">

<g transform="translate(0.000000,2160.000000) scale(0.100000,-0.100000)"
fill="#000000" stroke="none">
<path d="M8190 20750 c0 -8 102 -147 145 -197 25 -30 147 -189 290 -378 214
-283 258 -340 264 -345 4 -3 15 -18 25 -35 11 -16 25 -34 33 -38 7 -4 13 -12
13 -18 0 -11 15 -31 47 -61 12 -11 27 -33 33 -49 7 -16 16 -29 20 -29 4 0 39
-42 77 -92 228 -306 399 -529 435 -571 23 -26 55 -67 72 -91 17 -24 99 -133
181 -241 83 -108 165 -217 183 -243 19 -26 53 -69 76 -97 44 -52 235 -300 296
-385 33 -46 94 -125 269 -353 42 -54 88 -115 103 -135 15 -20 41 -53 57 -72
16 -19 78 -100 138 -180 140 -186 283 -374 336 -440 7 -8 23 -31 37 -50 13
-19 29 -39 36 -45 6 -5 81 -102 165 -215 184 -245 319 -421 333 -436 6 -6 18
-22 26 -34 13 -19 30 -41 58 -75 4 -5 52 -68 107 -140 142 -187 199 -260 207
-263 5 -2 8 -8 8 -13 0 -9 151 -211 196 -261 13 -15 24 -32 24 -37 0 -5 4 -11
8 -13 10 -4 49 -55 267 -343 87 -115 168 -222 179 -236 12 -14 32 -41 46 -59
14 -19 32 -41 40 -50 8 -9 20 -24 25 -32 6 -9 65 -87 132 -174 67 -88 204
-267 304 -399 101 -132 187 -245 193 -251 6 -6 18 -22 26 -34 8 -12 20 -28 26
-34 11 -12 221 -288 343 -451 41 -55 88 -116 105 -136 17 -19 38 -46 46 -58 8
-13 20 -29 25 -35 15 -15 175 -226 345 -451 78 -104 151 -199 162 -210 20 -22
62 -77 105 -140 16 -22 35 -47 44 -55 9 -8 85 -107 169 -220 85 -113 175 -232
200 -265 25 -33 70 -91 100 -130 30 -38 57 -71 62 -73 4 -2 8 -10 8 -17 0 -7
4 -15 8 -17 9 -3 57 -65 282 -363 79 -104 160 -210 179 -235 20 -25 41 -51 46
-58 6 -7 18 -21 28 -30 9 -9 17 -20 17 -25 0 -5 6 -14 13 -21 6 -8 19 -24 27
-36 15 -22 22 -31 74 -95 15 -19 111 -144 211 -277 l184 -243 -23 -25 c-13
-14 -162 -185 -331 -380 -169 -195 -335 -385 -369 -421 -33 -36 -79 -88 -101
-114 -49 -58 -86 -100 -124 -140 -16 -16 -241 -275 -501 -575 -260 -300 -480
-552 -489 -561 -9 -9 -38 -43 -66 -75 -27 -32 -61 -70 -75 -85 -48 -50 -105
-115 -145 -163 -22 -27 -49 -59 -61 -70 -12 -12 -234 -266 -494 -566 -261
-300 -487 -560 -504 -578 -62 -66 -92 -100 -121 -136 -16 -20 -48 -55 -70 -79
-22 -23 -53 -58 -70 -78 -82 -97 -824 -947 -851 -974 -17 -17 -35 -39 -40 -47
-5 -9 -48 -59 -95 -110 -48 -51 -99 -109 -115 -128 -16 -19 -34 -39 -40 -45
-12 -11 -987 -1131 -1047 -1204 -22 -25 -64 -73 -96 -106 -31 -33 -105 -116
-165 -185 -60 -69 -121 -138 -135 -155 -28 -32 -784 -898 -886 -1015 -72 -83
-196 -223 -234 -265 -27 -29 -252 -287 -504 -577 -70 -80 -127 -151 -127 -157
0 -8 478 -11 1683 -11 l1683 0 109 125 c60 69 112 125 116 125 4 0 10 8 13 18
4 9 30 42 59 73 28 31 72 80 97 108 61 70 96 109 134 151 29 31 389 444 890
1020 93 107 182 209 197 225 117 127 145 159 153 176 5 10 12 19 16 19 4 0
104 111 223 248 590 680 786 905 863 988 46 51 94 105 107 120 12 16 31 38 42
50 11 11 38 42 60 68 22 27 51 60 65 75 14 14 171 194 349 399 178 204 327
372 332 372 5 0 9 5 9 11 0 11 160 198 292 341 24 26 59 65 78 88 19 23 44 52
55 64 19 20 137 155 163 186 7 8 25 29 41 45 16 17 196 224 401 460 205 237
385 442 399 457 14 15 42 47 61 70 19 23 47 55 62 70 15 16 55 61 90 100 35
40 75 86 90 103 16 16 139 159 275 317 137 158 251 287 254 287 4 1 18 -16 31
-36 20 -30 330 -435 367 -479 5 -6 72 -94 148 -195 213 -282 275 -362 300
-389 13 -14 23 -28 23 -31 0 -3 13 -22 30 -40 16 -19 30 -37 30 -41 0 -4 7
-13 15 -21 15 -16 38 -46 240 -312 201 -265 238 -313 322 -420 43 -55 134
-174 203 -265 108 -144 268 -355 292 -385 53 -67 81 -103 92 -116 21 -25 289
-379 420 -554 66 -88 137 -180 158 -205 21 -25 95 -119 163 -210 161 -213 286
-378 305 -400 44 -53 50 -61 50 -65 0 -3 26 -38 58 -78 33 -39 129 -164 214
-277 240 -318 290 -384 304 -400 29 -32 64 -78 64 -84 0 -3 8 -14 18 -24 9
-10 26 -31 37 -46 11 -16 25 -33 31 -40 5 -6 82 -105 169 -221 216 -286 255
-337 305 -395 16 -19 30 -38 30 -42 0 -4 6 -13 13 -20 15 -17 50 -62 172 -223
138 -182 192 -252 204 -267 6 -7 35 -44 63 -83 29 -38 57 -75 63 -81 5 -6 17
-22 25 -34 8 -12 27 -36 42 -54 15 -17 28 -34 28 -37 0 -3 12 -19 26 -35 14
-16 57 -72 96 -124 39 -52 96 -125 125 -163 l54 -67 3394 0 c1867 0 3395 3
3395 6 0 6 -66 100 -85 120 -10 11 -28 35 -84 109 -16 22 -133 177 -260 345
-127 168 -357 472 -510 675 -287 381 -293 389 -349 457 -18 23 -38 50 -43 60
-6 11 -20 30 -31 43 -21 24 -254 332 -715 945 -147 195 -275 364 -285 375 -23
26 -110 142 -123 163 -5 10 -13 19 -16 22 -3 3 -102 133 -220 289 -118 157
-234 310 -257 340 -24 31 -143 188 -264 349 -121 162 -228 302 -239 313 -10
10 -19 22 -19 27 0 4 -16 25 -35 47 -19 22 -35 43 -35 47 0 4 -6 13 -13 20 -8
7 -110 141 -227 298 -117 157 -220 292 -227 300 -20 22 -80 100 -341 450 -129
173 -238 317 -242 320 -3 3 -17 21 -30 40 -13 19 -27 37 -30 40 -4 3 -116 151
-250 330 -134 179 -246 327 -249 330 -3 3 -30 37 -58 75 -29 39 -57 75 -61 80
-5 6 -98 130 -207 275 -110 146 -205 271 -212 278 -7 7 -13 16 -13 20 0 4 -18
27 -40 52 -22 25 -40 48 -40 52 0 4 -6 13 -13 20 -12 11 -379 496 -570 752
-38 50 -74 99 -82 108 -8 9 -96 126 -196 260 -100 134 -185 245 -189 248 -3 3
-30 37 -58 75 -28 39 -55 75 -60 80 -4 6 -111 147 -238 315 -390 517 -698 925
-706 935 -5 6 -17 21 -28 34 -11 13 -20 27 -20 30 0 3 -18 26 -40 51 -22 25
-40 48 -40 51 0 5 -7 15 -48 64 -5 6 -105 139 -222 295 -217 290 -271 361
-280 370 -27 25 -71 93 -67 103 5 12 381 448 489 567 33 36 76 85 96 109 20
25 52 61 71 80 33 36 404 461 860 986 128 149 246 284 262 300 28 30 93 103
126 140 103 118 696 797 904 1035 146 168 279 319 296 335 16 17 49 55 74 85
24 30 55 66 70 80 14 14 220 250 458 525 239 275 449 516 467 535 63 67 80 85
96 108 9 13 45 54 80 91 34 37 107 118 161 181 54 63 111 129 126 145 15 17
196 224 401 460 205 237 385 444 401 460 16 17 34 37 41 45 7 8 34 40 59 70
26 30 66 76 90 101 24 25 55 60 67 77 13 17 40 48 60 69 21 21 219 247 441
503 222 256 416 477 431 491 15 15 32 33 36 42 5 8 34 43 66 78 31 35 77 89
104 119 26 30 71 80 101 110 29 31 60 65 67 76 8 11 27 34 43 51 59 63 318
364 321 373 2 6 -622 10 -1683 10 l-1687 0 -37 -39 c-43 -46 -83 -90 -170
-192 -524 -603 -936 -1076 -945 -1084 -6 -5 -32 -35 -58 -65 -25 -30 -63 -74
-85 -97 -21 -23 -57 -64 -80 -90 -23 -26 -66 -75 -96 -108 -30 -33 -251 -287
-492 -565 -241 -278 -445 -512 -454 -521 -9 -9 -39 -43 -67 -75 -29 -33 -63
-71 -75 -85 -13 -14 -46 -51 -74 -83 -27 -32 -71 -81 -96 -110 -25 -28 -245
-280 -489 -561 -244 -280 -466 -535 -494 -566 -28 -31 -82 -91 -120 -132 -37
-42 -78 -89 -90 -105 -11 -16 -42 -51 -67 -78 -26 -27 -246 -278 -489 -559
-244 -280 -457 -524 -474 -541 -17 -16 -47 -50 -66 -73 -36 -45 -67 -80 -124
-141 -18 -19 -73 -82 -122 -140 -49 -58 -94 -109 -100 -115 -6 -5 -54 -61
-108 -122 -92 -106 -116 -127 -116 -103 0 6 -5 16 -10 23 -56 68 -100 125
-100 132 0 4 -6 13 -14 19 -7 6 -87 110 -177 231 -90 121 -169 226 -176 233
-7 7 -13 16 -13 20 0 4 -13 21 -28 39 -47 54 -57 67 -92 118 -19 28 -39 55
-45 60 -7 6 -106 136 -221 290 -114 154 -211 282 -214 285 -3 3 -19 23 -35 45
-17 22 -32 42 -35 45 -4 3 -107 140 -230 305 -123 165 -236 316 -252 335 -33
41 -35 43 -68 90 -24 34 -45 61 -65 84 -6 6 -111 146 -235 311 -123 165 -230
307 -237 315 -81 100 -103 130 -103 138 0 6 -4 12 -9 14 -4 2 -98 122 -207
268 -234 313 -215 287 -236 308 -10 9 -18 20 -18 25 0 8 -48 71 -87 115 -13
14 -23 28 -23 33 0 4 -6 14 -14 22 -13 13 -364 474 -396 521 -8 11 -39 53 -70
91 -31 39 -170 223 -310 410 -140 187 -267 354 -282 370 -15 17 -28 35 -28 42
0 6 -4 13 -8 15 -5 2 -105 131 -222 288 -118 157 -240 317 -272 357 -32 39
-58 74 -58 78 0 3 -8 14 -17 25 -10 10 -56 71 -103 134 l-85 115 -3482 0
c-2364 1 -3483 -2 -3483 -9z m5960 -1931 c0 -6 19 -34 43 -63 23 -29 49 -63
57 -75 8 -13 27 -36 43 -54 15 -17 27 -34 27 -37 0 -4 10 -18 23 -32 12 -14
93 -119 179 -234 86 -115 172 -229 190 -253 18 -24 48 -64 66 -90 18 -25 43
-57 55 -71 12 -14 118 -153 236 -310 118 -157 225 -298 238 -315 14 -16 31
-38 39 -48 8 -9 14 -21 14 -26 0 -5 4 -11 9 -13 4 -1 120 -151 256 -333 137
-181 258 -342 269 -356 12 -14 28 -36 36 -49 8 -12 23 -32 34 -43 19 -23 473
-623 514 -680 13 -18 35 -47 50 -66 15 -18 31 -41 36 -50 5 -9 15 -22 22 -29
7 -6 99 -128 206 -270 106 -141 197 -262 203 -268 30 -34 45 -55 45 -64 0 -6
3 -10 8 -10 4 0 18 -17 32 -38 14 -20 30 -42 36 -49 6 -6 105 -137 220 -290
115 -153 213 -283 219 -289 30 -34 45 -55 45 -63 0 -5 3 -11 8 -13 9 -4 60
-70 226 -293 69 -93 130 -174 134 -180 121 -157 149 -192 159 -203 7 -7 13
-16 13 -20 0 -4 11 -20 25 -36 14 -16 25 -32 25 -35 0 -3 14 -22 31 -41 16
-19 130 -167 252 -330 122 -162 227 -301 234 -308 7 -7 13 -16 13 -20 0 -4 14
-23 31 -42 17 -19 39 -46 48 -60 9 -14 24 -34 33 -45 9 -11 104 -137 211 -280
107 -143 203 -270 213 -281 11 -12 24 -28 29 -37 6 -8 46 -62 90 -119 44 -56
128 -168 187 -248 149 -201 198 -263 210 -268 5 -2 8 -10 8 -18 0 -8 4 -14 9
-14 5 0 12 -8 15 -17 3 -10 16 -29 29 -43 12 -14 46 -56 75 -95 28 -38 55 -74
60 -80 4 -5 90 -119 190 -252 100 -132 187 -247 194 -255 7 -7 21 -26 31 -41
10 -16 25 -36 32 -45 8 -9 34 -44 59 -77 25 -33 49 -65 54 -71 5 -5 99 -129
208 -275 109 -145 204 -270 211 -277 7 -7 13 -17 13 -20 0 -4 10 -18 23 -32
12 -14 33 -41 47 -60 13 -19 27 -37 30 -40 4 -3 116 -151 250 -330 134 -179
252 -334 262 -344 10 -11 18 -23 18 -26 0 -4 8 -16 18 -28 9 -11 26 -31 36
-43 10 -13 108 -142 218 -288 109 -146 208 -277 220 -291 12 -14 44 -56 72
-95 28 -38 54 -72 57 -75 5 -4 285 -375 398 -529 19 -25 40 -51 45 -57 6 -6
18 -22 26 -34 8 -12 20 -28 25 -34 6 -6 114 -148 240 -316 126 -168 235 -311
242 -318 7 -7 13 -17 13 -20 0 -4 11 -19 25 -34 13 -15 37 -44 52 -66 31 -44
506 -674 525 -698 7 -8 19 -21 26 -29 6 -7 12 -18 12 -23 0 -6 3 -12 8 -14 8
-4 25 -25 210 -270 78 -104 142 -192 142 -197 0 -5 4 -11 9 -13 7 -2 53 -61
153 -193 4 -5 20 -26 36 -45 15 -19 34 -45 42 -56 26 -38 427 -568 449 -593
12 -13 21 -27 21 -30 0 -3 10 -17 23 -31 12 -14 36 -44 52 -66 43 -61 409
-545 434 -574 29 -35 34 -42 52 -70 9 -14 26 -36 38 -50 27 -32 13 -14 189
-250 175 -235 292 -389 307 -404 6 -6 21 -28 34 -48 12 -21 27 -38 32 -38 5 0
9 -6 9 -14 0 -8 3 -16 8 -18 11 -5 112 -139 112 -149 0 -5 -408 -9 -924 -9
l-925 0 -28 38 c-15 20 -34 45 -43 54 -31 35 -40 47 -40 57 0 6 -6 14 -13 18
-8 4 -24 24 -38 43 -13 19 -27 37 -30 40 -6 5 -152 197 -312 410 -55 74 -109
143 -119 153 -10 10 -18 21 -18 25 0 4 -14 23 -30 42 -37 43 -39 46 -75 95
-17 22 -32 42 -36 45 -3 3 -32 41 -65 85 -33 44 -96 127 -140 185 -44 58 -122
161 -174 230 -52 69 -104 136 -117 149 -13 13 -33 40 -45 60 -12 20 -28 41
-34 46 -7 6 -48 57 -91 115 -235 312 -340 450 -372 490 -20 25 -39 49 -43 55
-4 5 -20 26 -36 45 -16 19 -100 130 -187 245 -243 322 -378 499 -385 505 -3 3
-31 39 -63 80 -31 41 -60 80 -65 85 -4 6 -86 114 -182 240 -192 254 -274 361
-322 418 -18 22 -39 49 -48 62 -8 13 -64 88 -124 167 -61 79 -152 199 -204
268 -52 69 -108 140 -123 157 -16 18 -29 37 -29 43 0 5 -4 10 -8 10 -4 0 -16
14 -26 30 -9 17 -25 38 -35 48 -10 9 -89 112 -176 227 -88 116 -188 248 -223
294 -35 46 -70 91 -78 98 -8 8 -14 17 -14 21 0 4 -13 21 -28 38 -15 18 -34 42
-42 54 -8 12 -20 28 -26 34 -11 12 -94 120 -333 436 -85 113 -160 210 -166
216 -28 32 -45 55 -45 63 0 5 -4 11 -8 13 -10 4 -176 220 -496 643 -20 28 -43
57 -49 65 -7 8 -44 56 -83 105 -39 50 -142 185 -229 300 -211 279 -318 419
-325 425 -7 6 -138 177 -355 465 -87 116 -161 212 -165 215 -4 3 -44 55 -90
115 -135 177 -360 474 -418 553 -30 39 -58 72 -63 72 -4 0 -10 8 -13 18 -4 10
-19 33 -34 50 -15 17 -93 118 -174 224 -209 277 -380 501 -392 514 -6 6 -18
22 -26 34 -8 12 -30 41 -48 64 -17 22 -36 46 -40 51 -4 6 -50 66 -103 135 -52
69 -153 202 -224 295 -153 202 -145 192 -167 213 -10 9 -18 20 -18 25 0 4 -5
13 -10 20 -6 7 -24 28 -40 47 -16 19 -30 38 -30 42 0 4 -8 15 -19 25 -10 10
-43 52 -74 93 -31 41 -119 158 -197 260 -77 102 -148 196 -158 209 -9 12 -39
51 -67 86 -54 67 -162 208 -422 550 -91 121 -170 222 -173 225 -4 3 -29 35
-56 71 -137 184 -455 601 -471 617 -7 7 -13 16 -13 20 0 4 -14 23 -30 42 -35
41 -29 34 -110 140 -36 46 -70 91 -77 100 -28 35 -126 165 -228 300 -108 143
-118 155 -162 208 -13 15 -23 30 -23 34 0 4 -8 15 -19 25 -10 10 -54 65 -98
123 -68 90 -159 210 -386 509 -26 35 -54 70 -60 77 -29 33 -37 44 -37 53 0 6
-6 14 -13 18 -8 4 -75 89 -150 188 -262 347 -341 450 -354 463 -7 7 -13 17
-13 20 0 4 -10 18 -23 32 -40 43 -337 435 -337 444 0 4 450 6 1000 6 702 0
1000 -3 1000 -11z"/>
</g>
</svg>
